<svg xmlns="http://www.w3.org/2000/svg" version="1.1" xmlns:xlink="http://www.w3.org/1999/xlink" width="512" height="512"><svg width="512" height="512" viewBox="0 0 512 512" fill="none" xmlns="http://www.w3.org/2000/svg">
<path d="M254.188 129.812C262.097 131.766 269.359 135.72 275.281 141.281L275.344 141.344C275.598 141.575 275.839 141.81 276.094 142.062C279.138 145.012 281.743 148.381 283.828 152.062C284.335 152.951 284.822 153.859 285.266 154.797C286.431 157.258 287.356 159.833 288.031 162.469C288.211 163.11 288.362 163.775 288.5 164.438C289.188 167.727 289.546 171.078 289.562 174.438V175.141C289.588 179.064 289.179 182.978 288.344 186.812V186.766C287.581 190.222 286.422 193.593 284.875 196.781C282.618 201.389 279.564 205.575 275.875 209.156C275.539 209.49 275.175 209.859 274.828 210.203C270.802 213.925 266.153 216.946 261.109 219.125C253.148 222.428 244.579 224.043 235.953 223.875H132.625V129.812H254.188Z" fill="#453884"></path>
<path fill-rule="evenodd" clip-rule="evenodd" d="M355.141 0C363.626 0.00138461 371.766 3.37507 377.766 9.375L502.625 134.234C508.625 140.234 511.999 148.374 512 156.859V480C512 497.673 497.673 512 480 512H88.1875C79.7006 512 71.548 508.626 65.5469 502.625L9.375 446.453C3.37384 440.452 0 432.299 0 423.812V32C0 14.3269 14.3269 0 32 0H355.141ZM74.9219 369.906L106.516 423.203H269.359L242.156 372.516H132.625V272.266H243.422C251.829 272.147 260.199 273.512 268.125 276.297C281.066 281.034 290.466 291.146 297.609 302.547L326.859 267.812C324.555 264.335 321.915 261.087 318.969 258.125C316.068 255.299 312.885 252.771 309.484 250.562C308.422 249.856 300.687 244.363 299.75 244.969C301.571 243.75 303.637 242.755 305.531 241.609C310.119 238.83 314.419 235.598 318.359 231.969H447.078L448.594 230.172V221.109H328.219C328.691 220.487 329.171 219.871 329.625 219.234C331.055 217.246 332.411 215.187 333.703 213.031C334.121 212.345 334.49 211.63 334.875 210.938H448.641V200.031H340.031C340.411 199.053 340.781 198.07 341.125 197.078C341.165 197.009 341.196 196.935 341.219 196.859C342.014 194.577 342.692 192.253 343.266 189.906H448.641V181.484H345C345.083 180.944 345.177 180.405 345.25 179.859C345.504 178.093 345.722 176.293 345.859 174.484C345.923 173.707 345.979 172.923 346 172.125C346.138 170.02 346.188 167.903 346.188 165.703V162.562C346.113 159.879 345.947 157.245 345.672 154.688C345.598 153.795 345.491 152.934 345.375 152.062C344.904 148.698 344.238 145.354 343.391 142.062C343.34 141.824 343.264 141.575 343.188 141.344C342.184 137.384 340.851 133.507 339.203 129.766C339.213 129.729 339.213 129.693 339.203 129.656C337.7 126.202 335.962 122.844 334 119.625C331.27 115.24 328.151 111.106 324.672 107.281C322.401 104.764 319.984 102.368 317.453 100.109C316.395 99.1538 315.22 98.2002 314.078 97.2656C307.908 92.2989 301.118 88.1421 293.875 84.9062C281.545 79.2919 267.443 75.9573 251.594 74.8906H74.9219V369.906ZM287.641 423.188H451.062V412.938H282.141L287.641 423.188ZM276.672 402.75H451.016V392.734H271.281L276.672 402.75ZM260.578 372.812L265.875 382.547H451.062V372.578H328.797L328.891 372.453H260.875L260.578 372.812ZM269.359 362.359H337.453L346.984 350.969H278.891L269.359 362.359ZM298.031 328.188L287.469 340.781H355.562L366.156 328.156L298.031 328.188ZM306.609 318H374.75L384.641 306.219H316.484L306.609 318ZM324.969 296.094H393.156L403.062 284.312H334.859L324.969 296.094ZM346.953 269.906L343.375 274.188H411.562L420.797 263.25H352.547L346.953 269.906ZM361.125 253.062H429.391L438.516 242.203H370.234L361.125 253.062Z" fill="#453884"></path>
</svg><style>@media (prefers-color-scheme: light) { :root { filter: none; } }
@media (prefers-color-scheme: dark) { :root { filter: contrast(0.7407407407407407) brightness(2); } }
</style></svg>